<?xml version="1.0" encoding="UTF-8"?>
<svg width="23px" height="28px" viewBox="0 0 23 28" version="1.1" xmlns="http://www.w3.org/2000/svg" xmlns:xlink="http://www.w3.org/1999/xlink">
    <title>Group 3</title>
    <g id="登录页" stroke="none" stroke-width="1" fill="none" fill-rule="evenodd">
        <g id="8.登录页" transform="translate(-1311.000000, -558.000000)" fill="#BEBEBE">
            <g id="分组" transform="translate(1222.000000, 231.000000)">
                <g id="登录" transform="translate(60.200000, 228.200000)">
                    <g id="密码" transform="translate(0.000000, 84.800000)">
                        <g id="Group-3" transform="translate(29.400000, 15.400000)">
                            <path d="M21.14,8.86666667 C21.8358788,8.86666667 22.4,9.43078788 22.4,10.1266667 L22.4,25.34 C22.4,26.0358788 21.8358788,26.6 21.14,26.6 L1.26,26.6 C0.564121215,26.6 0,26.0358788 0,25.34 L0,10.1266667 C0,9.43078788 0.564121215,8.86666667 1.26,8.86666667 L21.14,8.86666667 Z M21.14,25.34 L21.14,10.1266667 L1.26,10.1266667 L1.26,25.34 L21.14,25.34 Z" id="Rectangle-3" fill-rule="nonzero"></path>
                            <path d="M11.2,-0.63 C15.5913306,-0.63 19.1622086,2.92187066 19.2929574,7.34851874 L19.2966667,7.6 L19.2966667,9.57901204 L18.0366667,9.57901204 L18.0366667,7.6 C18.0366667,3.74810383 14.9732664,0.63 11.2,0.63 C7.5053433,0.63 4.49128311,3.61953618 4.36730085,7.36023351 L4.36333333,7.6 L4.36333333,9.53942871 L3.10333333,9.53942871 L3.10333333,7.6 C3.10333333,3.05716798 6.72581415,-0.63 11.2,-0.63 Z" id="Rectangle-4" fill-rule="nonzero"></path>
                            <ellipse id="Oval-2" cx="11.2" cy="19" rx="2.48888889" ry="2.53333333"></ellipse>
                            <rect id="Rectangle-5" x="9.95555556" y="13.9333333" width="2.48888889" height="5.06666667" rx="1.24444444"></rect>
                        </g>
                    </g>
                </g>
            </g>
        </g>
    </g>
</svg>