<?xml version="1.0" encoding="UTF-8"?>
<svg width="23px" height="29px" viewBox="0 0 23 29" version="1.1" xmlns="http://www.w3.org/2000/svg" xmlns:xlink="http://www.w3.org/1999/xlink">
    <title>Group 2</title>
    <g id="登录页" stroke="none" stroke-width="1" fill="none" fill-rule="evenodd">
        <g id="8.登录页" transform="translate(-1309.000000, -474.000000)" fill="#BEBEBE" fill-rule="nonzero">
            <g id="分组" transform="translate(1222.000000, 231.000000)">
                <g id="登录" transform="translate(60.200000, 228.200000)">
                    <g id="账号" transform="translate(0.000000, 0.800000)">
                        <g id="Group-2" transform="translate(28.000000, 15.400000)">
                            <path d="M9.88235294,-0.63 C5.43742369,-0.63 1.84058824,3.05818366 1.84058824,7.6 C1.84058824,12.1418163 5.43742369,15.83 9.88235294,15.83 C14.3272822,15.83 17.9241176,12.1418163 17.9241176,7.6 C17.9241176,3.05818366 14.3272822,-0.63 9.88235294,-0.63 Z M9.88235294,0.63 C13.6242329,0.63 16.6641176,3.74708814 16.6641176,7.6 C16.6641176,11.4529119 13.6242329,14.57 9.88235294,14.57 C6.14047296,14.57 3.10058824,11.4529119 3.10058824,7.6 C3.10058824,3.74708814 6.14047296,0.63 9.88235294,0.63 Z" id="Oval"></path>
                            <path d="M10.5,14.57 C16.6590264,14.57 21.63,19.9670571 21.63,26.6 C21.63,26.9479394 21.3479394,27.23 21,27.23 C20.6520606,27.23 20.37,26.9479394 20.37,26.6 C20.37,20.6408506 15.9389534,15.83 10.5,15.83 C5.06104663,15.83 0.63,20.6408506 0.63,26.6 C0.63,26.9479394 0.347939392,27.23 0,27.23 C-0.347939392,27.23 -0.63,26.9479394 -0.63,26.6 C-0.63,19.9670571 4.34097363,14.57 10.5,14.57 Z" id="Oval"></path>
                        </g>
                    </g>
                </g>
            </g>
        </g>
    </g>
</svg>