<?xml version="1.0" encoding="UTF-8"?>
<svg width="16px" height="21px" viewBox="0 0 16 21" version="1.1" xmlns="http://www.w3.org/2000/svg" xmlns:xlink="http://www.w3.org/1999/xlink">
    <title>形状</title>
    <g id="网络预警" stroke="none" stroke-width="1" fill="none" fill-rule="evenodd">
        <g id="7.2.1网络预警-预警反馈-预警详情" transform="translate(-1614.000000, -220.000000)" fill="#FF773A" fill-rule="nonzero">
            <g id="编组-45" transform="translate(1614.000000, 213.000000)">
                <path d="M6.37402264,17.499896 C5.98380634,16.954416 5.33337966,16.4089569 4.8129589,15.9998782 C3.12171055,14.4998603 1.56106374,12.9998425 1.30067467,8.6362318 L0.780452455,8.6362318 C0.390256009,8.6362318 0,8.22738187 0,7.8181159 C0,7.40905795 0.390236154,7 0.780452455,7 L15.2195873,7 C15.6098036,7 16,7.40905795 16,7.8181159 C16,8.22738187 15.6098036,8.6362318 15.2195873,8.6362318 L14.6993452,8.6362318 C14.5693393,12.9998425 12.8783093,14.3636672 11.1870212,15.9998782 C10.666799,16.4089361 10.1463783,16.954416 9.6261759,17.499896 C10.1463783,18.0453759 10.666799,18.5906478 11.1870212,18.9999346 C12.8782895,20.4999525 14.5693393,21.9999495 14.6993452,26.3635602 L15.2195674,26.3635602 C15.6097837,26.3635602 16,26.7726181 16,27.1816761 C16,27.5909421 15.6097837,28 15.2195674,28 L0.7804326,28 C0.390236154,28 0,27.5909421 0,27.1816761 C0,26.7726181 0.3902163,26.363581 0.7804326,26.363581 L1.30067467,26.363581 C1.43068059,21.9999495 3.1217304,20.6363536 4.81299861,18.9999346 C5.33339951,18.590627 5.9838262,18.0453551 6.3740425,17.499896 L6.37402264,17.499896 Z M3,26 L3.63291995,26 L7.68362696,21.8032951 C7.81013367,21.6722919 8.18984701,21.6722919 8.31635372,21.8032951 L12.3672732,26 L13,26 C12.873474,22.4588914 11.4809535,21.4096852 10.0886069,20.0984525 C9.45568691,19.4426361 8.69608637,18.918043 8.06335961,18 C7.30393295,18.918043 6.6708198,19.4426561 5.91139314,20.0984525 C4.51904652,21.4096852 3.12650671,22.4588914 3,26 Z M4.25000477,13 L11.8749194,13 C12.4999218,12.096611 13,10.9354483 13,9 L3,9 C3.12492416,10.935468 3.50007822,12.0965913 4.25000477,13 Z" id="形状"></path>
            </g>
        </g>
    </g>
</svg>